G04 EAGLE Gerber X2 export*
%TF.Part,Single*%
%TF.FileFunction,Paste,Top*%
%TF.FilePolarity,Positive*%
%TF.GenerationSoftware,Autodesk,EAGLE,9.1.2*%
%TF.CreationDate,2018-10-14T09:57:56Z*%
G75*
%MOMM*%
%FSLAX34Y34*%
%LPD*%
%AMOC8*
5,1,8,0,0,1.08239X$1,22.5*%
G01*
%ADD10R,1.100000X1.000000*%
%ADD11R,1.000000X2.300000*%
%ADD12R,1.000000X1.100000*%
%ADD13C,0.300000*%
%ADD14R,0.830000X0.630000*%
%ADD15R,1.600000X1.800000*%
%ADD16R,1.200000X2.000000*%
%ADD17R,2.000000X1.200000*%
%ADD18R,0.900000X0.800000*%
%ADD19R,1.300000X0.700000*%
%ADD20R,0.600000X0.900000*%
%ADD21R,0.900000X0.600000*%
%ADD22R,1.524000X0.635000*%
%ADD23R,1.930400X5.334000*%
%ADD24C,0.787400*%
%ADD25C,1.100000*%
%ADD26R,1.200000X0.800000*%
%ADD27R,0.450000X0.350000*%
%ADD28R,0.600000X0.400000*%


D10*
X141360Y66040D03*
X158360Y66040D03*
D11*
X995680Y78250D03*
X995680Y112500D03*
D10*
X409820Y167640D03*
X392820Y167640D03*
D12*
X1071880Y86750D03*
X1071880Y103750D03*
D10*
X308220Y27940D03*
X291220Y27940D03*
X308220Y162560D03*
X291220Y162560D03*
X253120Y27940D03*
X270120Y27940D03*
D13*
X939610Y161600D02*
X939610Y168600D01*
X939610Y161600D02*
X932610Y161600D01*
X932610Y168600D01*
X939610Y168600D01*
X939610Y164450D02*
X932610Y164450D01*
X932610Y167300D02*
X939610Y167300D01*
X957150Y168600D02*
X957150Y161600D01*
X950150Y161600D01*
X950150Y168600D01*
X957150Y168600D01*
X957150Y164450D02*
X950150Y164450D01*
X950150Y167300D02*
X957150Y167300D01*
X939610Y148280D02*
X939610Y141280D01*
X932610Y141280D01*
X932610Y148280D01*
X939610Y148280D01*
X939610Y144130D02*
X932610Y144130D01*
X932610Y146980D02*
X939610Y146980D01*
X957150Y148280D02*
X957150Y141280D01*
X950150Y141280D01*
X950150Y148280D01*
X957150Y148280D01*
X957150Y144130D02*
X950150Y144130D01*
X950150Y146980D02*
X957150Y146980D01*
D14*
X904240Y106750D03*
X904240Y83750D03*
D15*
X714980Y165100D03*
X742980Y165100D03*
D16*
X451800Y175895D03*
X471800Y175895D03*
X491800Y175895D03*
X511800Y175895D03*
X531800Y175895D03*
X551800Y175895D03*
X571800Y175895D03*
X591800Y175895D03*
X451800Y13895D03*
X471800Y13895D03*
X491800Y13895D03*
X511800Y13895D03*
X531800Y13895D03*
X551800Y13895D03*
X571800Y13895D03*
X591800Y13895D03*
D17*
X431800Y65895D03*
X431800Y145895D03*
X431800Y125895D03*
X431800Y45895D03*
X431800Y105895D03*
X431800Y85895D03*
D18*
X729140Y67920D03*
X729140Y48920D03*
X750140Y58420D03*
D12*
X409820Y43180D03*
X392820Y43180D03*
X786520Y165100D03*
X803520Y165100D03*
X898280Y165100D03*
X915280Y165100D03*
X898280Y144780D03*
X915280Y144780D03*
X392820Y22860D03*
X409820Y22860D03*
X785740Y48260D03*
X768740Y48260D03*
X768740Y68580D03*
X785740Y68580D03*
D10*
X104140Y46600D03*
X104140Y29600D03*
X200660Y46600D03*
X200660Y29600D03*
D12*
X818760Y109220D03*
X801760Y109220D03*
X801760Y88900D03*
X818760Y88900D03*
X392820Y127000D03*
X409820Y127000D03*
X392820Y147320D03*
X409820Y147320D03*
D19*
X878400Y158750D03*
X878400Y171450D03*
X878400Y146050D03*
X878400Y133350D03*
X823400Y158750D03*
X823400Y171450D03*
X823400Y146050D03*
X823400Y133350D03*
D20*
X122580Y26600D03*
X132080Y26600D03*
X141580Y26600D03*
X141580Y49600D03*
X132080Y49600D03*
X122580Y49600D03*
X182220Y49600D03*
X172720Y49600D03*
X163220Y49600D03*
X163220Y26600D03*
X172720Y26600D03*
X182220Y26600D03*
D21*
X862400Y89560D03*
X862400Y99060D03*
X862400Y108560D03*
X839400Y108560D03*
X839400Y99060D03*
X839400Y89560D03*
D20*
X1050900Y106750D03*
X1041400Y106750D03*
X1031900Y106750D03*
X1031900Y83750D03*
X1041400Y83750D03*
X1050900Y83750D03*
D22*
X306350Y63500D03*
X252450Y88900D03*
X306350Y50800D03*
X306350Y76200D03*
X306350Y88900D03*
X252450Y76200D03*
X252450Y101600D03*
X252450Y114300D03*
X306350Y114300D03*
X252450Y139700D03*
X306350Y101600D03*
X306350Y127000D03*
X252450Y127000D03*
X306350Y139700D03*
X252450Y63500D03*
X252450Y50800D03*
D23*
X355600Y46990D03*
X355600Y143510D03*
D24*
X394970Y71120D03*
X407670Y71120D03*
X394970Y83820D03*
X407670Y83820D03*
X394970Y96520D03*
X407670Y96520D03*
D25*
X26220Y112250D02*
X17220Y112250D01*
X17220Y95250D02*
X26220Y95250D01*
X26220Y78250D02*
X17220Y78250D01*
X65220Y78250D02*
X74220Y78250D01*
X74220Y95250D02*
X65220Y95250D01*
X65220Y112250D02*
X74220Y112250D01*
D12*
X110100Y73660D03*
X93100Y73660D03*
X110100Y116840D03*
X93100Y116840D03*
X110100Y95250D03*
X93100Y95250D03*
X996560Y165100D03*
X979560Y165100D03*
X1029580Y165100D03*
X1012580Y165100D03*
X996560Y144780D03*
X979560Y144780D03*
X1029580Y144780D03*
X1012580Y144780D03*
X1026160Y29600D03*
X1026160Y46600D03*
X785740Y27940D03*
X768740Y27940D03*
D21*
X862400Y46380D03*
X862400Y55880D03*
X862400Y65380D03*
X839400Y65380D03*
X839400Y46380D03*
D26*
X881380Y64880D03*
X881380Y46880D03*
D12*
X818760Y48260D03*
X801760Y48260D03*
X801760Y68580D03*
X818760Y68580D03*
D11*
X942340Y78250D03*
X942340Y112500D03*
D26*
X881380Y108060D03*
X881380Y90060D03*
D27*
X1005390Y28100D03*
X1005390Y33100D03*
X1005390Y38100D03*
X1005390Y43100D03*
X1005390Y48100D03*
X980890Y48100D03*
X980890Y43100D03*
X980890Y38100D03*
X980890Y33100D03*
X980890Y28100D03*
D28*
X930880Y40480D03*
X930880Y30480D03*
X930880Y20480D03*
X958880Y20480D03*
X958880Y30480D03*
X958880Y40480D03*
M02*
