<?xml version="1.0" encoding="UTF-8" standalone="no"?>
<svg
   xmlns:dc="http://purl.org/dc/elements/1.1/"
   xmlns:cc="http://creativecommons.org/ns#"
   xmlns:rdf="http://www.w3.org/1999/02/22-rdf-syntax-ns#"
   xmlns:svg="http://www.w3.org/2000/svg"
   xmlns="http://www.w3.org/2000/svg"
   xmlns:xlink="http://www.w3.org/1999/xlink"
   xmlns:sodipodi="http://sodipodi.sourceforge.net/DTD/sodipodi-0.dtd"
   xmlns:inkscape="http://www.inkscape.org/namespaces/inkscape"
   enable-background="new 0 0 512 512"
   height="512px"
   id="Layer_1"
   version="1.1"
   viewBox="0 0 512 512"
   width="512px"
   xml:space="preserve"
   sodipodi:docname="hat2.svg"
   inkscape:version="0.92.3 (2405546, 2018-03-11)"><metadata
     id="metadata83"><rdf:RDF><cc:Work
         rdf:about=""><dc:format>image/svg+xml</dc:format><dc:type
           rdf:resource="http://purl.org/dc/dcmitype/StillImage" /><dc:title /></cc:Work></rdf:RDF></metadata><defs
     id="defs81" /><sodipodi:namedview
     pagecolor="#ffffff"
     bordercolor="#666666"
     borderopacity="1"
     objecttolerance="10"
     gridtolerance="10"
     guidetolerance="10"
     inkscape:pageopacity="0"
     inkscape:pageshadow="2"
     inkscape:window-width="1918"
     inkscape:window-height="2064"
     id="namedview79"
     showgrid="false"
     inkscape:zoom="2.6074563"
     inkscape:cx="240.81627"
     inkscape:cy="80.521163"
     inkscape:window-x="1920"
     inkscape:window-y="28"
     inkscape:window-maximized="0"
     inkscape:current-layer="Layer_1" /><path
     d="M451.395,267.475c0-5.181-85.973-50.67-193.528-50.67c-107.579,0-196.033,45.49-196.033,50.67  c0,5.168,87.224,9.369,194.792,9.369C364.192,276.844,451.395,272.643,451.395,267.475"
     fill="#726127"
     id="path14"
     style="opacity:0.431" /><path
     d="M452.077,267.475c0-8.891-23.313-17.372-24.225-25.978C416.401,131.686,356.907,46.214,256.944,46.214  c-98.176,0-155.483,82.284-169.144,189.34c-1.332,10.417-25.944,21.049-25.944,31.921c0,0,112.144-22.153,195.088-22.153  C339.604,245.321,452.077,267.475,452.077,267.475"
     fill="#E9CE1E"
     id="path30" /><path
     d="M269.295,181.309c0,7.65-6.193,13.854-13.819,13.854c-7.65,0-13.854-6.205-13.854-13.854V54.877  c0-7.65,6.204-13.854,13.854-13.854c7.626,0,13.819,6.204,13.819,13.854V181.309z"
     fill="#DBBB27"
     id="path32" /><path
     d="M220.492,187.376c-1.491,7.593-9.051,12.397-16.484,10.815c-7.457-1.583-12.102-8.47-10.724-15.392  c7.627-38.558,7.627-78.083,0-116.618c-1.378-6.967,3.267-13.82,10.724-15.414c7.433-1.583,14.993,3.244,16.484,10.826  C228.746,103.18,228.746,145.802,220.492,187.376"
     fill="#DBBB27"
     id="path34" /><path
     d="M289.469,187.376c1.501,7.593,9.038,12.397,16.506,10.815c7.446-1.583,12.09-8.47,10.725-15.392  c-7.628-38.558-7.628-78.083,0-116.618c1.365-6.967-3.278-13.82-10.725-15.414c-7.468-1.583-15.005,3.244-16.506,10.826  C281.226,103.18,281.226,145.802,289.469,187.376"
     fill="#DBBB27"
     id="path36" /><path
     d="M428.08,242.476c-37.521-6.455-111.974-17.782-171.114-17.782c-60.529,0-136.574,11.771-173.276,18.135  c-7.343,8.117-21.846,16.314-21.846,24.646c0,0,112.167-22.153,195.122-22.153c82.637,0,195.111,22.153,195.111,22.153  C452.077,258.913,430.539,250.751,428.08,242.476"
     fill="#DBBB27"
     id="path38" /><path
     d="M 254.371,312.871 H 110.249 l 3.472,36.601 c 8.185,2.003 17.315,19.591 17.315,19.591 5.646,31.979 32.08,26.514 62.931,26.241 30.84,-0.319 33.97,-11.84 40.584,-34.585 6.603,-22.779 19.819,-23.646 19.819,-23.646 0,0 13.217,0.866 19.819,23.646 6.626,22.745 9.768,34.266 40.596,34.585 30.874,0.272 57.285,5.737 62.931,-26.241 0,0 9.154,-17.588 17.305,-19.591 l 3.483,-36.601 z m 129.631,33.276 c -7.901,5.008 -10.998,17.759 -11.84,21.982 -3.37,19.022 -14.025,22.493 -33.812,22.493 -3.779,0 -7.741,-0.112 -11.907,-0.249 -3.756,-0.125 -7.627,-0.239 -11.588,-0.284 -26.321,-0.252 -28.529,-7.81 -35.063,-30.281 l -0.115,-0.422 c -7.422,-25.627 -23.132,-27.38 -24.908,-27.492 -0.136,0 -0.25,0 -0.398,0 -0.114,0 -0.25,0 -0.398,0 -1.765,0.112 -17.463,1.865 -24.896,27.492 l -0.137,0.422 c -6.5,22.472 -8.697,30.029 -35.04,30.281 -3.961,0.045 -7.833,0.159 -11.566,0.284 -4.201,0.137 -8.14,0.249 -11.942,0.249 -19.763,0 -30.418,-3.471 -33.754,-22.402 -0.865,-4.314 -3.984,-17.065 -11.874,-22.073 l -2.675,-28.096 h 264.577 z"
     id="path40"
     inkscape:connector-curvature="0"
     style="fill:#141314" /><g
     id="g52"
     transform="translate(0,46)"
     style="opacity:0.6"><g
       id="g50"><defs
         id="defs43"><rect
           height="72.572998"
           id="SVGID_3_"
           width="264.56601"
           x="122.123"
           y="272.039" /></defs><clipPath
         id="SVGID_4_"><use
           overflow="visible"
           xlink:href="#SVGID_3_"
           id="use45"
           style="overflow:visible"
           x="0"
           y="0"
           width="100%"
           height="100%" /></clipPath><path
         clip-path="url(#SVGID_4_)"
         d="m 386.665,272.039 -2.663,28.096 c -2.278,1.492 -4.168,3.564 -5.693,5.978 -3.825,5.726 -5.554,13.022 -6.17,16.007 -1.662,9.515 -5.168,15.14 -10.746,18.396 -5.532,3.222 -13.137,4.108 -23.019,4.108 -3.779,0 -7.74,-0.124 -11.931,-0.238 -3.733,-0.136 -7.65,-0.228 -11.588,-0.295 -26.344,-0.24 -28.529,-7.81 -35.063,-30.271 l -0.115,-0.466 c -0.798,-2.676 -1.639,-5.078 -2.597,-7.241 -7.968,-18.682 -20.718,-20.081 -22.277,-20.218 h -0.82 c -1.56,0.137 -14.355,1.536 -22.312,20.218 -0.934,2.163 -1.822,4.565 -2.584,7.241 l -0.137,0.466 c -6.511,22.461 -8.72,30.03 -35.029,30.271 -3.984,0.067 -7.832,0.159 -11.6,0.295 -4.155,0.114 -8.139,0.238 -11.896,0.238 -19.82,0 -30.475,-3.471 -33.776,-22.38 -0.615,-3.108 -2.357,-10.405 -6.159,-16.131 -1.537,-2.413 -3.426,-4.485 -5.715,-5.978 l -2.652,-28.096 z"
         id="path48"
         inkscape:connector-curvature="0"
         style="fill:#0e0f0f" /></g></g><g
     id="g64"
     transform="translate(0,46)"
     style="opacity:0.2"><g
       id="g62"><defs
         id="defs55"><rect
           height="38.511002"
           id="SVGID_5_"
           width="101.193"
           x="130.467"
           y="306.10199" /></defs><clipPath
         id="SVGID_6_"><use
           overflow="visible"
           xlink:href="#SVGID_5_"
           id="use57"
           style="overflow:visible"
           x="0"
           y="0"
           width="100%"
           height="100%" /></clipPath><path
         clip-path="url(#SVGID_6_)"
         d="m 130.479,306.089 h 101.193 c -0.934,2.197 -1.822,4.577 -2.596,7.275 l -0.137,0.466 c -6.5,22.45 -8.697,30.008 -35.018,30.236 -3.984,0.08 -7.832,0.193 -11.588,0.308 -4.167,0.137 -8.163,0.238 -11.885,0.238 -19.843,0 -30.475,-3.46 -33.811,-22.381 -0.603,-3.107 -2.356,-10.382 -6.158,-16.142"
         id="path60"
         inkscape:connector-curvature="0"
         style="fill:#f9f9fa" /></g></g><g
     id="g76"
     transform="translate(0,46)"
     style="opacity:0.2"><g
       id="g74"><defs
         id="defs67"><rect
           height="38.511002"
           id="SVGID_7_"
           width="101.228"
           x="277.08099"
           y="306.10199" /></defs><clipPath
         id="SVGID_8_"><use
           overflow="visible"
           xlink:href="#SVGID_7_"
           id="use69"
           style="overflow:visible"
           x="0"
           y="0"
           width="100%"
           height="100%" /></clipPath><path
         clip-path="url(#SVGID_8_)"
         d="m 378.309,306.089 c -3.825,5.76 -5.554,13.035 -6.17,16.041 -1.662,9.517 -5.168,15.129 -10.746,18.396 -5.532,3.222 -13.137,4.087 -23.019,4.087 -3.779,0 -7.74,-0.102 -11.931,-0.238 -3.733,-0.114 -7.65,-0.228 -11.588,-0.308 -26.344,-0.229 -28.529,-7.786 -35.063,-30.236 l -0.115,-0.466 c -0.798,-2.698 -1.639,-5.078 -2.597,-7.275 h 101.229 z"
         id="path72"
         inkscape:connector-curvature="0"
         style="fill:#f9f9fa" /></g></g></svg>