<?xml version="1.0" encoding="UTF-8" standalone="no"?>
<svg
   xmlns:dc="http://purl.org/dc/elements/1.1/"
   xmlns:cc="http://creativecommons.org/ns#"
   xmlns:rdf="http://www.w3.org/1999/02/22-rdf-syntax-ns#"
   xmlns:svg="http://www.w3.org/2000/svg"
   xmlns="http://www.w3.org/2000/svg"
   xmlns:sodipodi="http://sodipodi.sourceforge.net/DTD/sodipodi-0.dtd"
   xmlns:inkscape="http://www.inkscape.org/namespaces/inkscape"
   enable-background="new 0 0 512 512"
   height="512px"
   id="Layer_1"
   version="1.1"
   viewBox="0 0 512 512"
   width="512px"
   xml:space="preserve"
   sodipodi:docname="if_Police_Blue_Guy_Face_Avatar_579343.svg"
   inkscape:version="0.92.3 (2405546, 2018-03-11)"><metadata
     id="metadata43"><rdf:RDF><cc:Work
         rdf:about=""><dc:format>image/svg+xml</dc:format><dc:type
           rdf:resource="http://purl.org/dc/dcmitype/StillImage" /><dc:title></dc:title></cc:Work></rdf:RDF></metadata><defs
     id="defs41" /><sodipodi:namedview
     pagecolor="#ffffff"
     bordercolor="#666666"
     borderopacity="1"
     objecttolerance="10"
     gridtolerance="10"
     guidetolerance="10"
     inkscape:pageopacity="0"
     inkscape:pageshadow="2"
     inkscape:window-width="757"
     inkscape:window-height="480"
     id="namedview39"
     showgrid="false"
     inkscape:zoom="0.4609375"
     inkscape:cx="256"
     inkscape:cy="256"
     inkscape:window-x="0"
     inkscape:window-y="28"
     inkscape:window-maximized="0"
     inkscape:current-layer="Layer_1" /><path
     d="M262.467,387.493h-4.768c-17.301,0-39.475-9.135-53.544,12.808c16.988-4.178,49.766,19.277,55.918,4.788  c6.151,14.489,38.972-8.966,55.959-4.788C301.964,378.358,279.77,387.493,262.467,387.493"
     fill="#412B16"
     id="path28" /><path
     d="M407.689,164.872c0,21.964-17.808,39.728-39.729,39.728H144.647c-21.921,0-39.707-17.764-39.707-39.728  c0-21.942,17.785-39.707,39.707-39.707h223.314C389.882,125.165,407.689,142.93,407.689,164.872"
     fill="#1D2351"
     id="path30" /><path
     d="M395.469,199.96c0,11.276-31.686,63.96-134.996,63.96s-139.785-52.684-139.785-63.96  c0-11.297,34.752-5.543,138.042-5.543C362.04,194.417,395.469,188.663,395.469,199.96"
     fill="#090909"
     id="path32" /><path
     d="M434.672,148.074c0,16.148-60.348,28.704-174.032,28.704c-113.662,0-177.832-12.556-177.832-28.704  c0-8.693,39.687-36.095,88.339-66.227c41.849-25.891,63.162-56.211,89.493-56.296c25.198-0.042,44.495,33.303,85.693,58.5  C396.224,114.582,434.672,139.213,434.672,148.074"
     fill="#1D2351"
     id="path34" /><path
     d="M290.415,97.364v-0.021c0.021-0.083,0.021-0.146,0.021-0.209v-0.189h-4.642  c-4.011-0.483-9.784-1.533-14.677-3.738c-5.859-2.603-9.03-6.152-9.406-10.562l-0.295-1.532l-0.083,1.197  c-1.092,12.179-23.246,14.342-27.656,14.636h-1.953v0.189c0.021,0.126,0.714,14.887,4.746,29.439  c2.352,8.546,5.375,15.37,8.966,20.263c4.514,6.131,9.953,9.239,16.168,9.239c0.358,0,0.714,0,1.072-0.021h0.104  c0.692,0,6.951-0.21,13.291-7.728c3.612-4.263,6.594-10.1,8.925-17.386c2.834-8.925,4.662-20.075,5.397-33.136l0.188-0.419  L290.415,97.364z"
     fill="#E8B121"
     id="path36" /></svg>