<?xml version="1.0" encoding="UTF-8" standalone="no"?>
<svg
   xmlns:dc="http://purl.org/dc/elements/1.1/"
   xmlns:cc="http://creativecommons.org/ns#"
   xmlns:rdf="http://www.w3.org/1999/02/22-rdf-syntax-ns#"
   xmlns:svg="http://www.w3.org/2000/svg"
   xmlns="http://www.w3.org/2000/svg"
   xmlns:xlink="http://www.w3.org/1999/xlink"
   xmlns:sodipodi="http://sodipodi.sourceforge.net/DTD/sodipodi-0.dtd"
   xmlns:inkscape="http://www.inkscape.org/namespaces/inkscape"
   enable-background="new 0 0 512 512"
   height="512px"
   id="Layer_1"
   version="1.1"
   viewBox="0 0 512 512"
   width="512px"
   xml:space="preserve"
   sodipodi:docname="hat4.svg"
   inkscape:version="0.92.3 (2405546, 2018-03-11)"><metadata
     id="metadata97"><rdf:RDF><cc:Work
         rdf:about=""><dc:format>image/svg+xml</dc:format><dc:type
           rdf:resource="http://purl.org/dc/dcmitype/StillImage" /><dc:title /></cc:Work></rdf:RDF></metadata><defs
     id="defs95" /><sodipodi:namedview
     pagecolor="#ffffff"
     bordercolor="#666666"
     borderopacity="1"
     objecttolerance="10"
     gridtolerance="10"
     guidetolerance="10"
     inkscape:pageopacity="0"
     inkscape:pageshadow="2"
     inkscape:window-width="3840"
     inkscape:window-height="2065"
     id="namedview93"
     showgrid="false"
     inkscape:zoom="1.84375"
     inkscape:cx="620.21445"
     inkscape:cy="471.23939"
     inkscape:window-x="0"
     inkscape:window-y="28"
     inkscape:window-maximized="1"
     inkscape:current-layer="Layer_1" /><path
     d="M260.505,286.094c-14.689,0-12.873,15.339-12.873,21.865h1.817c0-12.704,3.587-17.438,11.056-17.438  c7.288,0,11.079,4.399,11.079,17.438h1.748C273.332,300.334,274.677,286.094,260.505,286.094"
     fill="#777777"
     id="path32" /><path
     d="M214.959,269.982c0,0,51.779,7.926,91.112,0"
     fill="none"
     stroke="#777777"
     stroke-miterlimit="10"
     stroke-width="0.25"
     id="path34" /><path
     d="M187.378,266.024c-32.606,0-51.779,12.209-51.779,42.664c0,30.438,20.159,55.838,47.944,55.838  c27.784,0,67.386-36.665,67.386-67.119C250.929,266.955,215.184,266.024,187.378,266.024 M183.543,362.764  c-25.878,0-46.151-23.77-46.151-54.075c0-27.517,16.348-40.904,49.986-40.904c31.259,0,61.779,2.299,61.779,29.623  C249.157,327.703,209.442,362.764,183.543,362.764"
     fill="#777777"
     id="path36" /><path
     d="M333.653,266.024c-27.783,0-63.528,0.931-63.528,31.383c0,30.454,39.558,67.119,67.363,67.119  s47.944-25.399,47.944-55.838C385.433,278.233,366.26,266.024,333.653,266.024 M337.488,362.764  c-25.899,0-65.614-35.061-65.614-65.356c0-27.324,30.521-29.623,61.779-29.623c33.639,0,50.008,13.388,50.008,40.904  C383.661,338.994,363.368,362.764,337.488,362.764"
     fill="#777777"
     id="path38" /><g
     opacity="0.8"
     id="g50"><g
       id="g48"><defs
         id="defs41"><rect
           height="94.969"
           id="SVGID_3_"
           width="111.765"
           x="137.37"
           y="267.784" /></defs><clipPath
         id="SVGID_4_"><use
           overflow="visible"
           xlink:href="#SVGID_3_"
           id="use43" /></clipPath><path
         clip-path="url(#SVGID_4_)"
         d="M183.521,362.764c-25.879,0-46.151-23.77-46.151-54.075    c0-27.517,16.348-40.904,50.008-40.904c31.237,0,61.757,2.299,61.757,29.623C249.135,327.703,209.42,362.764,183.521,362.764"
         fill="#1B1C1D"
         id="path46" /></g></g><g
     opacity="0.8"
     id="g62"><g
       id="g60"><defs
         id="defs53"><rect
           height="94.969"
           id="SVGID_5_"
           width="111.766"
           x="271.852"
           y="267.784" /></defs><clipPath
         id="SVGID_6_"><use
           overflow="visible"
           xlink:href="#SVGID_5_"
           id="use55" /></clipPath><path
         clip-path="url(#SVGID_6_)"
         d="M337.444,362.764c-25.88,0-65.593-35.061-65.593-65.356    c0-27.324,30.521-29.623,61.758-29.623c33.636,0,50.008,13.388,50.008,40.904C383.617,338.994,363.321,362.764,337.444,362.764"
         fill="#1B1C1D"
         id="path58" /></g></g><g
     opacity="0.2"
     id="g74"><g
       id="g72"><defs
         id="defs65"><rect
           height="56.681"
           id="SVGID_7_"
           width="105.689"
           x="138.244"
           y="306.354" /></defs><clipPath
         id="SVGID_8_"><use
           overflow="visible"
           xlink:href="#SVGID_7_"
           id="use67" /></clipPath><path
         clip-path="url(#SVGID_8_)"
         d="M243.933,317.319c-13.365-6.793-30.835-10.941-50.03-10.941    c-22.021,0-41.822,5.458-55.659,14.139c4.396,24.576,22.626,42.508,45.097,42.508    C203.703,363.024,232.541,341.324,243.933,317.319"
         fill="#EBECEB"
         id="path70" /></g></g><g
     opacity="0.2"
     id="g86"><g
       id="g84"><defs
         id="defs77"><rect
           height="56.681"
           id="SVGID_9_"
           width="105.711"
           x="277.076"
           y="306.354" /></defs><clipPath
         id="SVGID_10_"><use
           overflow="visible"
           xlink:href="#SVGID_9_"
           id="use79" /></clipPath><path
         clip-path="url(#SVGID_10_)"
         d="M277.076,317.319c13.365-6.793,30.833-10.941,50.03-10.941    c22.021,0,41.823,5.458,55.681,14.139c-4.395,24.576-22.626,42.508-45.119,42.508    C317.283,363.024,288.468,341.324,277.076,317.319"
         fill="#EBECEB"
         id="path82" /></g></g><rect
     fill="#E90E8B"
     height="162.222"
     width="41.666"
     x="235.411"
     y="13.622"
     id="rect88"
     style="fill:#00ff00" /><path
     d="M277.076,175.831c0,0,12.961-50.153,38.077-47.786V62.238c0,0-14.574,3.027-38.077-48.616V175.831z"
     fill="#E90E8B"
     id="path90"
     style="fill:#008000" /></svg>