<?xml version="1.0" ?><!DOCTYPE svg  PUBLIC '-//W3C//DTD SVG 1.1//EN'  'http://www.w3.org/Graphics/SVG/1.1/DTD/svg11.dtd'><svg enable-background="new 0 0 512 512" height="512px" id="Layer_1" version="1.1" viewBox="0 0 512 512" width="512px" xml:space="preserve" xmlns="http://www.w3.org/2000/svg" xmlns:xlink="http://www.w3.org/1999/xlink"><g opacity="0.7"><g><defs><rect height="45.924" id="SVGID_1_" width="77.65" x="217.874" y="425.053"/></defs><clipPath id="SVGID_2_"><use overflow="visible" xlink:href="#SVGID_1_"/></clipPath><path clip-path="url(#SVGID_2_)" d="M295.547,449.733v0.113c-3.437,5.488-15.323,21.13-38.819,21.13h-0.182    c-22.335-0.091-35.324-16.303-38.683-21.038c0.797-4.737,1.468-9.745,1.958-14.959c0.307-3.142,0.604-6.307,0.888-9.539    c10.906,2.754,22.734,4.439,35.416,4.621h0.421c12.977-0.182,24.954-1.958,36.157-5.009c0.318,3.142,0.614,6.306,0.909,9.357    C294.203,439.806,294.773,444.907,295.547,449.733" fill="#BF9980"/></g></g><path d="M451.395,267.475c0-5.181-85.973-50.67-193.528-50.67c-107.579,0-196.033,45.49-196.033,50.67  c0,5.168,87.224,9.369,194.792,9.369C364.192,276.844,451.395,272.643,451.395,267.475" fill="#726127"/><path d="M253.916,83.076c-148.403,0-149.257,124.222-142.643,205.515c-10.188-19.249-40.288-13.285-37.817,17.043  c2.379,29.246,44.91,44.375,44.329,40.972c12.169,66.903,82,105.563,136.131,105.563c0.375,0,0.774-0.067,1.138-0.067V83.099  C254.656,83.099,254.291,83.076,253.916,83.076" fill="#D3A889"/><path d="M82.928,292.804c7.342-11.702,18.658-6.67,21.424-4.087c2.96,2.824,5.316,6.535,3.472,13.479  c-1.024,3.87-5.123,4.2-4.121,10.12c1.093,6.648,4.201,7.115,5.942,8.606c1.73,1.515,3.917,2.652,5.009,5.476  c1.059,2.824,1.241,5.806,0.638,8.367c-1.116,4.805-8.095,0.979-12.773-1.139c-3.085-1.4-12.876-9.676-15.369-12.476  C80.924,314.138,78.032,300.59,82.928,292.804" fill="#BF9980"/><path d="M254.645,83.076c148.414,0,149.256,124.222,142.654,205.515c10.176-19.249,40.298-13.285,37.817,17.043  c-2.369,29.246-44.921,44.375-44.329,40.972c-12.182,66.903-81.988,105.563-136.143,105.563c-0.354,0-0.774-0.067-1.115-0.067  V83.099C253.893,83.099,254.291,83.076,254.645,83.076" fill="#DEB79A"/><path d="M425.644,292.804c-7.331-11.702-18.646-6.67-21.469-4.087c-2.915,2.824-5.26,6.535-3.439,13.479  c1.025,3.87,5.123,4.2,4.122,10.12c-1.094,6.648-4.167,7.115-5.942,8.606c-1.707,1.515-3.894,2.652-5.01,5.476  c-1.024,2.824-1.229,5.806-0.614,8.367c1.093,4.805,8.105,0.979,12.795-1.139c3.074-1.4,12.863-9.676,15.346-12.476  C427.648,314.138,430.539,300.59,425.644,292.804" fill="#BF9980"/><path d="M255.578,118.093c-48.815,0-84.561,14.173-106.19,42.178c-30.213,39.07-29.053,98.802-17.907,141.652  c3.404,13.114,5.146,48.427,7.502,61.405c10.542,57.968,74.475,88.841,116.596,88.841c0.375,0,0.774-0.067,1.149-0.067V118.116  C256.33,118.116,255.976,118.093,255.578,118.093" fill="#E1BE9B"/><path d="M361.575,160.328c-21.472-27.812-56.808-41.962-104.848-42.201v333.996  c48.086-0.546,105.575-34.356,115.457-88.817c2.345-12.956,4.098-48.257,7.491-61.36  C390.787,259.188,391.879,199.546,361.575,160.328" fill="#F1D1AD"/><path d="M397.617,286.646c-2.96,2.913-6.284,6.626-8.563,12.613c-4.621,12.203-6.374,10.097-6.374,10.097  s7.263-47.744,7.263-61.029c0-13.228-41.551-111.495-64.729-119.396c-23.291-7.787-44.124,18.624-69.101,18.624h-1.935  c-24.476-0.512-46.162-26.342-69.056-18.624c-23.177,7.9-64.764,106.167-64.764,119.396c0,13.285,7.275,61.029,7.275,61.029  s-1.776,2.106-6.398-10.097c-2.629-7.104-6.853-11.088-10.211-14.025c-6.17-82.75-2.652-204.662,142.949-204.662h0.786  C401.169,80.571,403.991,203.861,397.617,286.646" fill="#412B16"/><path d="M452.077,267.475c0-8.891-23.313-17.372-24.225-25.978C416.401,131.686,356.907,46.214,256.944,46.214  c-98.176,0-155.483,82.284-169.144,189.34c-1.332,10.417-25.944,21.049-25.944,31.921c0,0,112.144-22.153,195.088-22.153  C339.604,245.321,452.077,267.475,452.077,267.475" fill="#E9CE1E"/><path d="M269.295,181.309c0,7.65-6.193,13.854-13.819,13.854c-7.65,0-13.854-6.205-13.854-13.854V54.877  c0-7.65,6.204-13.854,13.854-13.854c7.626,0,13.819,6.204,13.819,13.854V181.309z" fill="#DBBB27"/><path d="M220.492,187.376c-1.491,7.593-9.051,12.397-16.484,10.815c-7.457-1.583-12.102-8.47-10.724-15.392  c7.627-38.558,7.627-78.083,0-116.618c-1.378-6.967,3.267-13.82,10.724-15.414c7.433-1.583,14.993,3.244,16.484,10.826  C228.746,103.18,228.746,145.802,220.492,187.376" fill="#DBBB27"/><path d="M289.469,187.376c1.501,7.593,9.038,12.397,16.506,10.815c7.446-1.583,12.09-8.47,10.725-15.392  c-7.628-38.558-7.628-78.083,0-116.618c1.365-6.967-3.278-13.82-10.725-15.414c-7.468-1.583-15.005,3.244-16.506,10.826  C281.226,103.18,281.226,145.802,289.469,187.376" fill="#DBBB27"/><path d="M428.08,242.476c-37.521-6.455-111.974-17.782-171.114-17.782c-60.529,0-136.574,11.771-173.276,18.135  c-7.343,8.117-21.846,16.314-21.846,24.646c0,0,112.167-22.153,195.122-22.153c82.637,0,195.111,22.153,195.111,22.153  C452.077,258.913,430.539,250.751,428.08,242.476" fill="#DBBB27"/><path d="M254.371,266.871H110.249l3.472,36.601c8.185,2.003,17.315,19.591,17.315,19.591  c5.646,31.979,32.08,26.514,62.931,26.241c30.84-0.319,33.97-11.84,40.584-34.585c6.603-22.779,19.819-23.646,19.819-23.646  s13.217,0.866,19.819,23.646c6.626,22.745,9.768,34.266,40.596,34.585c30.874,0.272,57.285,5.737,62.931-26.241  c0,0,9.154-17.588,17.305-19.591l3.483-36.601H254.371z M384.002,300.147c-7.901,5.008-10.998,17.759-11.84,21.982  c-3.37,19.022-14.025,22.493-33.812,22.493c-3.779,0-7.741-0.112-11.907-0.249c-3.756-0.125-7.627-0.239-11.588-0.284  c-26.321-0.252-28.529-7.81-35.063-30.281l-0.115-0.422c-7.422-25.627-23.132-27.38-24.908-27.492c-0.136,0-0.25,0-0.398,0  c-0.114,0-0.25,0-0.398,0c-1.765,0.112-17.463,1.865-24.896,27.492l-0.137,0.422c-6.5,22.472-8.697,30.029-35.04,30.281  c-3.961,0.045-7.833,0.159-11.566,0.284c-4.201,0.137-8.14,0.249-11.942,0.249c-19.763,0-30.418-3.471-33.754-22.402  c-0.865-4.314-3.984-17.065-11.874-22.073l-2.675-28.096h264.577L384.002,300.147z" fill="#141314"/><g opacity="0.6"><g><defs><rect height="72.573" id="SVGID_3_" width="264.566" x="122.123" y="272.039"/></defs><clipPath id="SVGID_4_"><use overflow="visible" xlink:href="#SVGID_3_"/></clipPath><path clip-path="url(#SVGID_4_)" d="M386.665,272.039l-2.663,28.096c-2.278,1.492-4.168,3.564-5.693,5.978    c-3.825,5.726-5.554,13.022-6.17,16.007c-1.662,9.515-5.168,15.14-10.746,18.396c-5.532,3.222-13.137,4.108-23.019,4.108    c-3.779,0-7.74-0.124-11.931-0.238c-3.733-0.136-7.65-0.228-11.588-0.295c-26.344-0.24-28.529-7.81-35.063-30.271l-0.115-0.466    c-0.798-2.676-1.639-5.078-2.597-7.241c-7.968-18.682-20.718-20.081-22.277-20.218h-0.82c-1.56,0.137-14.355,1.536-22.312,20.218    c-0.934,2.163-1.822,4.565-2.584,7.241l-0.137,0.466c-6.511,22.461-8.72,30.03-35.029,30.271c-3.984,0.067-7.832,0.159-11.6,0.295    c-4.155,0.114-8.139,0.238-11.896,0.238c-19.82,0-30.475-3.471-33.776-22.38c-0.615-3.108-2.357-10.405-6.159-16.131    c-1.537-2.413-3.426-4.485-5.715-5.978l-2.652-28.096H386.665z" fill="#0E0F0F"/></g></g><g opacity="0.2"><g><defs><rect height="38.511" id="SVGID_5_" width="101.193" x="130.467" y="306.102"/></defs><clipPath id="SVGID_6_"><use overflow="visible" xlink:href="#SVGID_5_"/></clipPath><path clip-path="url(#SVGID_6_)" d="M130.479,306.089h101.193c-0.934,2.197-1.822,4.577-2.596,7.275l-0.137,0.466    c-6.5,22.45-8.697,30.008-35.018,30.236c-3.984,0.08-7.832,0.193-11.588,0.308c-4.167,0.137-8.163,0.238-11.885,0.238    c-19.843,0-30.475-3.46-33.811-22.381C136.034,319.124,134.281,311.849,130.479,306.089" fill="#F9F9FA"/></g></g><g opacity="0.2"><g><defs><rect height="38.511" id="SVGID_7_" width="101.228" x="277.081" y="306.102"/></defs><clipPath id="SVGID_8_"><use overflow="visible" xlink:href="#SVGID_7_"/></clipPath><path clip-path="url(#SVGID_8_)" d="M378.309,306.089c-3.825,5.76-5.554,13.035-6.17,16.041    c-1.662,9.517-5.168,15.129-10.746,18.396c-5.532,3.222-13.137,4.087-23.019,4.087c-3.779,0-7.74-0.102-11.931-0.238    c-3.733-0.114-7.65-0.228-11.588-0.308c-26.344-0.229-28.529-7.786-35.063-30.236l-0.115-0.466    c-0.798-2.698-1.639-5.078-2.597-7.275H378.309z" fill="#F9F9FA"/></g></g></svg>