<?xml version="1.0" ?><svg data-name="Layer 1" id="Layer_1" viewBox="0 0 32 32" xmlns="http://www.w3.org/2000/svg"><defs><style>.cls-1{fill:#7dccfc;}</style></defs><title/><path class="cls-1" d="M31,3.67a1,1,0,0,0-.73-.47,6.36,6.36,0,0,0-.67,0,7,7,0,0,0-3.85,1.15,7,7,0,0,1,1.94-2A1,1,0,0,0,27.57.63a7.41,7.41,0,0,0-7.94,1.26L17.74,3.58a2,2,0,0,0-.16,2.8l-8.31,6a6.85,6.85,0,0,0-7.45,2A6.86,6.86,0,0,0,0,18.2a7,7,0,0,0,6,7.74,7,7,0,0,0,7.74,6,6.86,6.86,0,0,0,3.82-1.77,6.85,6.85,0,0,0,2-7.45l6.1-8.23a2,2,0,0,0,2.71-.24l1.69-1.89A7.42,7.42,0,0,0,31,3.67Z"/></svg>