<?xml version="1.0" ?><!DOCTYPE svg  PUBLIC '-//W3C//DTD SVG 1.1//EN'  'http://www.w3.org/Graphics/SVG/1.1/DTD/svg11.dtd'><svg enable-background="new 0 0 512 512" height="512px" id="Layer_1" version="1.1" viewBox="0 0 512 512" width="512px" xml:space="preserve" xmlns="http://www.w3.org/2000/svg" xmlns:xlink="http://www.w3.org/1999/xlink"><g opacity="0.7"><g><defs><rect height="44.664" id="SVGID_1_" width="75.53" x="222.592" y="423.546"/></defs><clipPath id="SVGID_2_"><use overflow="visible" xlink:href="#SVGID_1_"/></clipPath><path clip-path="url(#SVGID_2_)" d="M298.122,447.569v0.083c-3.34,5.354-14.91,20.558-37.754,20.558h-0.212    c-21.69-0.085-34.289-15.876-37.564-20.452c0.777-4.599,1.428-9.492,1.911-14.552c0.272-3.045,0.588-6.11,0.84-9.281    c10.625,2.688,22.111,4.324,34.438,4.493h0.376c12.642-0.169,24.295-1.91,35.214-4.872c0.273,3.066,0.547,6.152,0.862,9.093    C296.799,437.888,297.365,442.864,298.122,447.569" fill="#BF9980"/></g></g><path d="M257.638,91.106c-144.256,0-145.097,120.759-138.671,199.796c-9.89-18.73-39.161-12.914-36.768,16.589  c2.331,28.39,43.676,43.109,43.088,39.791c11.843,65.072,79.708,102.638,132.351,102.638c0.378,0,0.756-0.043,1.092-0.043V91.127  C258.372,91.127,258.016,91.106,257.638,91.106" fill="#D3A889"/><path d="M91.417,294.976c7.14-11.359,18.143-6.467,20.851-3.947c2.856,2.729,5.145,6.342,3.381,13.103  c-1.03,3.78-5.019,4.074-4.032,9.849c1.07,6.468,4.074,6.866,5.753,8.356c1.681,1.47,3.822,2.583,4.872,5.313  c1.029,2.75,1.218,5.647,0.65,8.147c-1.113,4.64-7.895,0.944-12.43-1.094c-3.003-1.385-12.515-9.448-14.93-12.156  C89.464,315.744,86.671,302.599,91.417,294.976" fill="#BF9980"/><path d="M258.352,91.106c144.256,0,145.074,120.759,138.671,199.796c9.889-18.73,39.182-12.914,36.767,16.589  c-2.331,28.39-43.696,43.109-43.087,39.791C378.88,412.354,310.993,449.92,258.352,449.92c-0.336,0-0.755-0.043-1.093-0.043V91.127  C257.616,91.127,258.016,91.106,258.352,91.106" fill="#DEB79A"/><path d="M424.571,294.976c-7.118-11.359-18.143-6.467-20.851-3.947c-2.856,2.729-5.103,6.342-3.36,13.103  c1.008,3.78,4.998,4.074,4.032,9.849c-1.071,6.468-4.054,6.866-5.774,8.356c-1.7,1.47-3.822,2.583-4.893,5.313  c-0.987,2.75-1.197,5.647-0.609,8.147c1.113,4.64,7.874,0.944,12.41-1.094c3.023-1.385,12.536-9.448,14.93-12.156  C426.524,315.744,429.338,302.599,424.571,294.976" fill="#BF9980"/><path d="M259.255,125.165c-47.456,0-82.187,13.775-103.248,40.989c-29.355,37.985-28.242,96.043-17.407,137.704  c3.317,12.768,5.018,47.078,7.308,59.698c10.247,56.358,72.401,86.343,113.347,86.343c0.356,0,0.756-0.041,1.092-0.041V125.187  C259.989,125.187,259.652,125.165,259.255,125.165" fill="#E1BE9B"/><path d="M362.292,166.216c-20.872-27.044-55.204-40.799-101.924-41.029v324.671  c46.72-0.504,102.616-33.387,112.233-86.302c2.289-12.62,3.989-46.952,7.286-59.698  C390.681,262.324,391.772,204.328,362.292,166.216" fill="#F1D1AD"/><path d="M383.163,312.215c-0.671,0-1.029-0.355-1.112-0.483l-0.314-0.336l0.062-0.461  c0.105-0.462,7.077-46.489,7.077-59.173c0-12.493-40.506-107.719-62.26-115.131c-2.708-0.903-5.417-1.323-8.293-1.323  c-9.198,0-18.08,4.514-27.466,9.28c-9.828,5.019-20.033,10.185-31.076,10.185h-1.891c-10.709-0.21-20.767-5.27-30.532-10.121  c-9.637-4.81-18.75-9.344-27.989-9.344c-2.898,0-5.607,0.419-8.295,1.323c-21.775,7.413-62.28,102.638-62.28,115.131  c0,12.684,6.992,58.711,7.076,59.173l0.064,0.461l-0.273,0.336c-0.105,0.128-0.483,0.483-1.134,0.483  c-1.176,0-3.171-1.091-6.783-10.604c-2.457-6.551-6.278-10.247-9.658-13.229l-0.295-0.273l-0.042-0.378  c-4.011-53.565-3.633-120.36,34.982-161.979c23.455-25.239,58.752-38.068,104.968-38.068h0.757c46.26,0,81.618,12.85,105.054,38.174  c38.763,41.87,38.95,109.231,34.793,163.217l-0.02,0.399l-0.253,0.231c-2.982,2.939-6.006,6.425-8.105,11.905  C386.334,311.124,384.339,312.215,383.163,312.215" fill="#412B16"/><path d="M262.467,387.493h-4.768c-17.301,0-39.475-9.135-53.544,12.808c16.988-4.178,49.766,19.277,55.918,4.788  c6.151,14.489,38.972-8.966,55.959-4.788C301.964,378.358,279.77,387.493,262.467,387.493" fill="#412B16"/><path d="M407.689,164.872c0,21.964-17.808,39.728-39.729,39.728H144.647c-21.921,0-39.707-17.764-39.707-39.728  c0-21.942,17.785-39.707,39.707-39.707h223.314C389.882,125.165,407.689,142.93,407.689,164.872" fill="#1D2351"/><path d="M395.469,199.96c0,11.276-31.686,63.96-134.996,63.96s-139.785-52.684-139.785-63.96  c0-11.297,34.752-5.543,138.042-5.543C362.04,194.417,395.469,188.663,395.469,199.96" fill="#090909"/><path d="M434.672,148.074c0,16.148-60.348,28.704-174.032,28.704c-113.662,0-177.832-12.556-177.832-28.704  c0-8.693,39.687-36.095,88.339-66.227c41.849-25.891,63.162-56.211,89.493-56.296c25.198-0.042,44.495,33.303,85.693,58.5  C396.224,114.582,434.672,139.213,434.672,148.074" fill="#1D2351"/><path d="M290.415,97.364v-0.021c0.021-0.083,0.021-0.146,0.021-0.209v-0.189h-4.642  c-4.011-0.483-9.784-1.533-14.677-3.738c-5.859-2.603-9.03-6.152-9.406-10.562l-0.295-1.532l-0.083,1.197  c-1.092,12.179-23.246,14.342-27.656,14.636h-1.953v0.189c0.021,0.126,0.714,14.887,4.746,29.439  c2.352,8.546,5.375,15.37,8.966,20.263c4.514,6.131,9.953,9.239,16.168,9.239c0.358,0,0.714,0,1.072-0.021h0.104  c0.692,0,6.951-0.21,13.291-7.728c3.612-4.263,6.594-10.1,8.925-17.386c2.834-8.925,4.662-20.075,5.397-33.136l0.188-0.419  L290.415,97.364z" fill="#E8B121"/></svg>