<?xml version="1.0" ?><!DOCTYPE svg  PUBLIC '-//W3C//DTD SVG 1.1//EN'  'http://www.w3.org/Graphics/SVG/1.1/DTD/svg11.dtd'><svg enable-background="new 0 0 512 512" height="512px" id="Layer_1" version="1.1" viewBox="0 0 512 512" width="512px" xml:space="preserve" xmlns="http://www.w3.org/2000/svg" xmlns:xlink="http://www.w3.org/1999/xlink"><path d="M129.092,139.616c-48.261,70.957-8.141,127.712-6.243,144.762c1.86,17.071,5.233,24.635,10.95,38.373  c5.696,13.736,15.17,22.584,15.17,22.584s-13.494-18.929-12.019-56.28c0.626-15.848,12.019-53.099,12.019-53.099  s-9.756,24.958-9.756,38.847c0,13.939,2.04,35.434,12.162,50.594c10.1,15.182,26.665,24.373,26.665,24.373  s-32.827-52.917,8.586-108.218c8.323-11.101,32.808-29.717,49.231-37.313c16.463-7.575,31.352-16.969,40.847-32.767  c9.474-15.828-24.384,29.191-36.969,41.271c-28.179,27.01-35.129,56.715-35.776,74.423c0,0,6.727-31.565,48.06-50.595  c17.574-8.051,52.603-20.939,64.866-28.07c42.463-24.706,38.199-69.301,38.199-69.301s-9.049,32.151-18.503,49.231  c-9.495,17.07-16.969,38-20.06,43.736c-15.293,28.292-36.04,34.767-36.04,34.767s13.839-1.667,37.171-14.454  c52.079-28.545,37.432-64.584,37.432-64.584s-11.251,39.22-8.1,67.664c3.172,28.465,9.92,45.01,18.12,60.2  c8.243,15.161,31.718,28.938,31.718,28.938s-23.293-18.038-22.769-58.795c0.243-19.403,11.395-43.625,11.395-43.625  s-3.738,15.788,4.465,27.16c8.241,11.405,46.139-149.995-52.524-182.054C287.228,71.063,187.574,53.619,129.092,139.616" fill="#432715"/><path d="M366.073,253.996c10.345,29.383,17.07,33.372,15.294,64.088c-1.495,26.313-10.708,41.787-18.466,54.453  c0,0,25.171-16.06,32.303-52.381c3.354-17.031,7.251-45.102,2.303-62.414c-4.929-17.292-11.514-40.21-11.514-40.21L366.073,253.996z  " fill="#432715"/><path d="M395.123,342.629c0,0-7.879-9.95-3.212-73.532c2.344-31.737-3.534-62.312-4.989-69.301  c0.466,1.857-45.454,92.795-45.454,92.795c-1.596,25.423-2.887,50.229-3.211,67.462l-7.695-13.183c0,0-6.527,21.728-7.476,30.313  c-0.061,0.474-0.061,0.989-0.101,1.463l-24.769-24.676c0,0,0.04,14.121,1.294,27.535l-15.03-14.959c0,0,0.142,36.402,5.152,47.807  c5.656,12.828,0.544,48.342,0.544,48.342c6.85-8.586,11.717-17.686,15.193-26.352c-0.627,7.858-1.476,13.776-1.476,13.776  c10.585-13.243,16.402-27.787,19.757-39.907c0.303,5.445,0.647,10.949,0.728,16.362c0.242,16.97-6.121,33.928-6.121,33.928  s13.272-18.332,20.646-48.634c1.334,22.282,4.525,38.452,11.252,47.118c-0.869-1.543-4.282-8.827-3.454-27.735  c0.343-8.506,1.15-17.727,2.162-26.959c5.251,23.999,20.686,37.342,20.686,37.342s-11.777-26.666-7.979-59.472  c0.788-6.636,1.372-12.455,1.858-17.706c0.345,9.1,1.293,19.423,3.516,30.2c5.636,27.2,17.21,42.655,17.21,42.655  s-11.131-24.678-0.949-91.432c0.788-5.132,0.828-12.555,0.547-20.545C390.094,340.416,395.123,342.629,395.123,342.629" fill="#432715"/><path d="M123.254,338.891c0,0,7.858-9.949,3.191-73.542c-2.323-31.726,3.555-62.301,4.989-69.291  c-0.444,1.858,45.474,92.775,45.474,92.775c1.596,25.443,2.868,50.239,3.191,67.472l7.696-13.15c0,0,6.546,21.695,7.475,30.281  c0.041,0.476,0.041,0.989,0.101,1.485l24.788-24.718c0,0-0.041,14.153-1.292,27.537l15.029-14.939c0,0-0.141,36.433-5.151,47.806  c-5.697,12.827-0.565,48.331-0.565,48.331c-6.829-8.565-11.697-17.695-15.192-26.322c0.625,7.849,1.474,13.757,1.474,13.757  c-10.585-13.232-16.383-27.776-19.717-39.917c-0.363,5.455-0.686,10.96-0.747,16.384c-0.243,16.958,6.101,33.937,6.101,33.937  s-13.293-18.343-20.625-48.644c-1.354,22.271-4.546,38.454-11.272,47.12c0.889-1.556,4.302-8.838,3.474-27.738  c-0.363-8.503-1.151-17.735-2.182-26.958c-5.251,23.98-20.706,37.344-20.706,37.344s11.818-26.687,8-59.475  c-0.768-6.646-1.374-12.452-1.858-17.705c-0.323,9.1-1.293,19.422-3.535,30.22c-5.597,27.181-17.191,42.636-17.191,42.636  s11.131-24.686,0.929-91.442c-0.748-5.12-0.788-12.555-0.506-20.534C128.284,336.679,123.254,338.891,123.254,338.891" fill="#432715"/><g opacity="0.7"><g><defs><rect height="42.968" id="SVGID_1_" width="72.665" x="224.684" y="403.404"/></defs><clipPath id="SVGID_2_"><use overflow="visible" xlink:href="#SVGID_1_"/></clipPath><path clip-path="url(#SVGID_2_)" d="M297.349,426.484v0.101c-3.192,5.152-14.323,19.777-36.322,19.777h-0.182    c-20.867-0.102-33.009-15.262-36.141-19.687c0.748-4.413,1.375-9.11,1.82-13.988c0.282-2.939,0.564-5.869,0.828-8.918    c10.222,2.564,21.272,4.141,33.108,4.322h0.385c12.141-0.182,23.354-1.84,33.857-4.688c0.282,2.93,0.547,5.89,0.828,8.728    C296.077,417.201,296.621,421.98,297.349,426.484" fill="#BF9980"/></g></g><path d="M259.088,83.577c138.804,0,139.592,116.178,133.409,192.215c9.516-18.019,37.677-12.453,35.373,15.929  c-2.223,27.354-42.018,41.504-41.434,38.313c-11.393,62.594-76.684,98.714-127.349,98.714c-0.324,0-0.707-0.04-1.05-0.04V83.598  C258.4,83.598,258.764,83.577,259.088,83.577" fill="#DEB79A"/><path d="M419.003,279.711c-6.829-10.939-17.454-6.222-20.041-3.797c-2.769,2.627-4.929,6.101-3.253,12.595  c0.97,3.616,4.808,3.929,3.879,9.475c-1.009,6.202-3.919,6.637-5.555,8.02c-1.616,1.435-3.657,2.507-4.688,5.132  c-0.969,2.646-1.173,5.444-0.626,7.818c1.069,4.495,7.616,0.938,11.979-1.05c2.91-1.304,12.042-9.041,14.363-11.667  C420.9,299.68,423.587,287.014,419.003,279.711" fill="#BF9980"/><path d="M258.421,83.577c-138.784,0-139.571,116.178-133.41,192.215c-9.515-18.019-37.676-12.453-35.373,15.929  c2.222,27.354,42.019,41.504,41.454,38.313c11.372,62.594,76.684,98.714,127.328,98.714c0.343,0,0.728-0.04,1.05-0.04V83.598  C259.108,83.598,258.764,83.577,258.421,83.577" fill="#D3A889"/><path d="M98.487,279.711c6.888-10.939,17.454-6.222,20.06-3.797c2.767,2.627,4.949,6.101,3.252,12.595  c-0.969,3.616-4.788,3.929-3.858,9.475c1.029,6.202,3.899,6.637,5.535,8.02c1.616,1.435,3.657,2.507,4.667,5.132  c1.01,2.646,1.192,5.444,0.626,7.818c-1.071,4.495-7.596,0.938-11.959-1.05c-2.869-1.304-12.041-9.041-14.343-11.667  C96.628,299.68,93.921,287.014,98.487,279.711" fill="#BF9980"/><path d="M259.956,116.323c-45.655,0-79.047,13.252-99.31,39.443c-28.241,36.555-27.17,92.411-16.726,132.5  c3.151,12.264,4.788,45.28,7.01,57.403c9.837,54.219,69.653,83.098,109.026,83.098c0.363,0,0.728-0.071,1.091-0.071V116.363  C260.664,116.363,260.339,116.323,259.956,116.323" fill="#E1BE9B"/><path d="M359.105,155.816c-20.102-26-53.131-39.23-98.079-39.463v312.364c44.968-0.496,98.744-32.131,107.997-83.037  c2.202-12.141,3.798-45.162,7.01-57.423C386.416,248.289,387.428,192.503,359.105,155.816" fill="#F1D1AD"/><path d="M352.762,133.646c0,0,0.384,3.455,0.545,9.515c-0.282,3.021-0.061,6.829-0.909,11.05  c-0.485,4.284-1.677,9.021-3.637,14c-1.898,4.969-4.584,10.202-8.201,15.191c-3.494,5.061-7.979,9.869-13.069,14.171  c-10.142,8.787-22.606,15.676-35.252,21.535c-12.767,5.748-25.313,10.837-36.706,16.858c-11.394,5.787-21.615,12.06-29.454,18.574  c-3.959,3.224-7.433,6.323-10.242,9.414c-2.808,3.041-5.111,5.89-6.666,8.415c-1.718,2.464-2.849,4.556-3.557,5.999  c-0.727,1.443-1.13,2.231-1.13,2.231c0.161,0.062,0.768-3.434,3.595-8.848c1.334-2.756,3.374-5.897,5.96-9.293  c2.545-3.434,5.716-7.151,9.615-10.675c7.677-7.242,17.777-14.333,29.09-20.99c11.333-6.494,24.222-12.251,36.604-17.918  c12.344-5.808,24.303-12.333,34.1-20.171c4.951-3.869,9.253-8.13,12.89-12.555c3.657-4.364,6.524-9.019,8.667-13.565  c2.119-4.536,3.654-8.939,4.707-12.949c1.291-3.959,1.515-7.576,2.14-10.515C352.418,137.1,352.762,133.646,352.762,133.646" fill="#63391A"/><path d="M273.632,176.089c0,0-2.424,2.212-6.646,6.142c-4.666,3.414-11.434,8.382-20.04,13.12  c-8.646,4.839-18.605,10.465-28.928,16.839c-2.525,1.656-5.112,3.353-7.717,5.019c-2.444,1.869-4.949,3.748-7.475,5.656  c-2.646,1.758-4.747,4.111-7.131,6.182c-2.444,2.071-4.686,4.283-6.586,6.787c-1.999,2.456-4.403,4.586-6,7.283  c-1.697,2.646-3.395,5.272-5.051,7.858c-1.556,2.686-2.565,5.605-3.919,8.332c-1.353,2.729-2.525,5.525-3.111,8.465  c-0.788,2.85-1.576,5.687-2.323,8.435c-0.787,2.776-0.828,5.605-1.312,8.342c-0.345,2.749-0.667,5.395-1.031,7.981  c-0.203,2.585-0.042,5.13-0.042,7.555c0.162,4.817-0.201,9.323,0.142,13.282c0.444,3.97,0.788,7.424,1.051,10.232  c0.525,5.736,0.828,9.019,0.828,9.019s-0.768-3.182-2.142-8.767c-0.626-2.837-1.414-6.272-2.303-10.182  c-0.848-3.949-1.01-8.525-1.474-13.505c-0.182-2.464-0.545-5.069-0.525-7.758c0.161-2.706,0.282-5.505,0.463-8.372  c0.264-2.879,0.142-5.859,0.728-8.839c0.667-2.999,1.354-6.039,2.062-9.141c0.545-3.121,1.656-6.161,3.01-9.192  c1.292-2.989,2.343-6.201,4-9.1c1.777-2.849,3.575-5.728,5.373-8.606c1.738-2.93,4.263-5.273,6.343-7.939  c2.161-2.667,4.606-5.01,7.192-7.181c2.545-2.192,4.888-4.647,7.676-6.455c2.667-1.919,5.353-3.849,7.979-5.728  c2.748-1.656,5.475-3.292,8.162-4.878c10.808-6.192,21.414-10.798,30.261-15.08c4.405-2.112,8.424-4.06,12.039-5.798  c3.436-1.899,6.466-3.556,8.951-4.92C270.886,177.927,273.632,176.089,273.632,176.089" fill="#63391A"/><path d="M359.71,176.089c0,0,0.141,2.05,0.264,5.606c0,1.797,0.201,3.929-0.04,6.434  c-0.204,2.505-0.144,5.424-0.728,8.485c-0.566,3.061-0.911,6.454-2.102,9.848c-0.889,3.515-2.223,7.069-3.919,10.666  c-1.798,3.494-3.575,7.282-6.202,10.555c-2.344,3.476-5.251,6.556-8.161,9.637c-3.11,2.878-6.322,5.585-9.655,7.989  c-3.293,2.455-6.809,4.504-10.162,6.435c-6.768,3.869-13.413,6.636-19.132,8.868c-11.474,4.303-19.393,6.333-19.393,6.333  s1.737-1.08,4.868-2.798c3.092-1.738,7.557-4.172,12.868-7.151c10.506-5.939,24.587-13.798,35.758-24.657  c2.706-2.756,5.412-5.545,7.637-8.626c2.422-2.938,4.322-6.211,6.14-9.332c1.696-3.233,3.314-6.375,4.465-9.556  c1.395-3.08,2.143-6.231,3.111-9.039c0.909-2.859,1.393-5.525,2.041-7.909c0.705-2.354,0.927-4.525,1.271-6.283  C359.267,178.079,359.71,176.089,359.71,176.089" fill="#63391A"/><path d="M272.119,30.619c0,5.718-4.627,10.344-10.346,10.344c-5.716,0-10.363-4.626-10.363-10.344  c0-5.707,4.647-10.343,10.363-10.343C267.492,20.276,272.119,24.912,272.119,30.619" fill="#799BAA"/><path d="M387.811,191.836h-125.31h-1.454H135.738c-29.495,0-31.999,54.018-31.999,54.018  c0,29.476,2.504,52.767,31.999,52.767c0,0,46.948-49.796,125.309-48.635h0.082c0.222,0,0.443,0,0.645,0c0.202,0,0.405,0,0.627,0  h0.101c78.341-1.162,125.31,48.635,125.31,48.635c29.474,0,31.998-23.291,31.998-52.767  C419.809,245.854,417.284,191.836,387.811,191.836" fill="#57747E"/><path d="M387.204,188.259h-125.31h-1.454H135.112c-29.474,0-31.979,54.02-31.979,54.02  c0,29.473,2.505,52.747,31.979,52.747c0,0,46.987-49.777,125.328-48.616h0.103c0.201,0,0.402,0,0.606,0c0.241,0,0.423,0,0.645,0  h0.061h0.04c78.343-1.162,125.31,48.616,125.31,48.616c29.473,0,32-23.273,32-52.747  C419.204,242.279,416.677,188.259,387.204,188.259" fill="#E8E51C"/><path d="M261.995,30.7c-0.281,0-0.544,0.021-0.846,0.021c-0.264,0-0.546-0.021-0.851-0.021  c-115.895,0-154.883,78.977-154.883,194.883c0,0,51.372-26.889,155.45-27.97h0.606c104.077,1.081,155.449,27.97,155.449,27.97  C416.921,109.677,377.934,30.7,261.995,30.7" fill="#C42327"/><line fill="none" stroke="#1B2F34" stroke-miterlimit="10" stroke-width="0.5" x1="260.319" x2="260.319" y1="30.7" y2="197.553"/><path d="M395.123,216.36c0,0-0.182-3.393-0.546-9.303c-0.182-2.979-0.282-6.575-0.665-10.696  c-0.425-4.101-0.891-8.727-1.415-13.777c-0.505-5.03-1.515-10.444-2.323-16.202c-0.868-5.728-2.403-11.686-3.516-17.908  c-1.596-6.101-3.009-12.495-5.069-18.788c-2.02-6.333-4.182-12.696-6.89-18.868c-2.303-6.323-5.535-12.241-8.463-18.161  c-1.658-2.848-3.335-5.686-4.951-8.474c-1.676-2.798-3.655-5.303-5.432-7.909c-1.719-2.646-3.718-4.98-5.679-7.303  c-1.958-2.293-3.675-4.737-5.837-6.655c-2.042-2.051-4.04-4.01-5.961-5.94c-2.1-1.696-4.161-3.353-6.099-4.918  c-1.9-1.676-3.982-2.94-5.9-4.181c-1.918-1.243-3.735-2.485-5.475-3.536c-3.697-1.797-6.849-3.534-9.575-4.677  c-5.615-1.989-8.787-3.1-8.787-3.1s3.252,0.929,8.988,2.545c2.81,0.97,6.082,2.496,9.96,4.091c3.555,2.111,7.919,4.081,11.939,7.262  c2.081,1.556,4.201,3.141,6.424,4.818c2.041,1.889,4.16,3.828,6.303,5.818c2.283,1.919,4.12,4.343,6.202,6.616  c2.121,2.272,4.161,4.697,5.958,7.362c1.819,2.626,3.901,5.193,5.618,8.01c1.717,2.829,3.433,5.708,5.17,8.606  c3.051,5.98,6.424,12,8.83,18.384c2.686,6.313,4.808,12.828,6.786,19.262c1.999,6.414,3.394,12.888,4.929,19.09  c1.112,6.292,2.384,12.354,3.051,18.191c0.606,5.808,1.435,11.293,1.736,16.384c0.728,10.212,0.891,18.696,0.748,24.635  C395.144,212.967,395.123,216.36,395.123,216.36" fill="#1B2F34"/><path d="M126.789,214.34c0,0-0.02-3.415-0.061-9.394c-0.141-5.979,0.041-14.504,0.768-24.757  c0.364-5.131,1.173-10.635,1.798-16.495c0.707-5.847,1.96-11.949,3.131-18.282c1.596-6.232,2.929-12.767,5.051-19.201  c1.03-3.202,2.081-6.455,3.131-9.717c1.15-3.233,2.524-6.375,3.777-9.586c1.232-3.222,2.707-6.323,4.343-9.362  c1.616-3.021,2.95-6.172,4.768-9.041c1.777-2.899,3.535-5.777,5.293-8.606c1.857-2.777,3.919-5.313,5.817-7.949  c1.839-2.646,4.04-4.979,6.162-7.252c2.162-2.263,4.141-4.596,6.484-6.434c2.223-1.95,4.425-3.828,6.526-5.657  c2.303-1.566,4.524-3.122,6.646-4.565c4.262-2.92,8.687-4.819,12.445-6.647c3.959-1.343,7.333-2.747,10.221-3.494  c5.859-1.233,9.211-1.939,9.211-1.939s-3.292,0.909-9.029,2.525c-2.829,0.91-6.082,2.526-9.9,4.071  c-1.857,0.868-3.696,2.11-5.696,3.252c-2,1.202-4.181,2.233-6.162,3.869c-2.019,1.505-4.121,3.081-6.323,4.697  c-1.999,1.858-4.08,3.757-6.201,5.747c-2.223,1.858-4.062,4.221-6.06,6.494c-1.981,2.313-4.162,4.556-5.9,7.202  c-1.838,2.586-3.817,5.112-5.596,7.818c-1.676,2.789-3.373,5.627-5.09,8.485c-1.738,2.828-3.031,5.929-4.586,8.928  c-1.576,2.98-2.95,6.041-4.161,9.233c-1.253,3.121-2.668,6.202-3.818,9.374c-1.071,3.202-2.122,6.383-3.212,9.535  c-2.122,6.303-3.536,12.757-5.192,18.878c-1.151,6.252-2.686,12.232-3.576,18c-0.828,5.797-1.818,11.231-2.342,16.301  c-0.526,5.071-1.012,9.728-1.435,13.839c-0.405,4.141-0.485,7.777-0.687,10.757C126.991,210.926,126.789,214.34,126.789,214.34" fill="#1B2F34"/></svg>