<?xml version="1.0" ?><!DOCTYPE svg  PUBLIC '-//W3C//DTD SVG 1.1//EN'  'http://www.w3.org/Graphics/SVG/1.1/DTD/svg11.dtd'><svg enable-background="new 0 0 512 512" height="512px" id="Layer_1" version="1.1" viewBox="0 0 512 512" width="512px" xml:space="preserve" xmlns="http://www.w3.org/2000/svg" xmlns:xlink="http://www.w3.org/1999/xlink"><g opacity="0.7"><g><defs><rect height="46.867" id="SVGID_1_" width="79.227" x="220.431" y="414.129"/></defs><clipPath id="SVGID_2_"><use overflow="visible" xlink:href="#SVGID_1_"/></clipPath><path clip-path="url(#SVGID_2_)" d="M299.68,439.311v0.113c-3.497,5.606-15.652,21.582-39.623,21.582h-0.202    c-22.784-0.11-36.016-16.67-39.423-21.493c0.807-4.798,1.502-9.911,1.997-15.246c0.269-3.207,0.628-6.429,0.896-9.734    c11.146,2.825,23.188,4.53,36.126,4.71h0.404c13.275-0.18,25.473-1.995,36.934-5.104c0.291,3.219,0.584,6.438,0.919,9.507    C298.291,429.188,298.895,434.424,299.68,439.311" fill="#BF9980"/></g></g><rect fill="#99999A" height="33.804" width="3.409" x="132.168" y="343.167"/><rect fill="#99999A" height="3.396" width="21.169" x="123.287" y="353.044"/><path d="M260.369,110.654c-134.101,0-134.861,112.269-128.874,185.734c-9.217-17.413-36.419-12.031-34.199,15.404  c2.153,26.429,40.589,40.074,40.073,37.013c10.988,60.469,74.07,95.396,123,95.396c0.359,0,0.719-0.047,1.032-0.047V110.676  C261.066,110.676,260.729,110.654,260.369,110.654" fill="#D3A889"/><path d="M105.863,300.176c6.637-10.584,16.863-6.01,19.398-3.689c2.646,2.569,4.754,5.921,3.116,12.188  c-0.918,3.513-4.642,3.793-3.722,9.138c0.986,6.025,3.768,6.414,5.36,7.762c1.547,1.377,3.52,2.421,4.507,4.987  c0.963,2.524,1.121,5.217,0.604,7.557c-1.031,4.32-7.356,0.867-11.548-1.039c-2.803-1.256-11.638-8.749-13.904-11.271  C104.047,319.472,101.468,307.25,105.863,300.176" fill="#BF9980"/><path d="M261.042,110.654c134.1,0,134.863,112.269,128.897,185.734c9.195-17.413,36.42-12.031,34.198,15.404  c-2.175,26.429-40.611,40.074-40.05,37.013c-11.011,60.469-74.114,95.396-123.046,95.396c-0.336,0-0.695-0.047-1.008-0.047V110.676  C260.369,110.676,260.706,110.654,261.042,110.654" fill="#DEB79A"/><path d="M415.549,300.176c-6.613-10.584-16.841-6.01-19.375-3.689c-2.646,2.569-4.731,5.921-3.115,12.188  c0.94,3.513,4.665,3.793,3.743,9.138c-0.963,6.025-3.788,6.414-5.359,7.762c-1.569,1.377-3.566,2.421-4.552,4.987  c-0.941,2.524-1.121,5.217-0.562,7.557c1.01,4.32,7.311,0.867,11.571-1.039c2.781-1.256,11.594-8.749,13.838-11.271  C417.366,319.472,419.989,307.25,415.549,300.176" fill="#BF9980"/><path d="M259.227,142.306c-44.155,0-76.402,12.815-95.979,38.111c-27.291,35.319-26.26,89.284-16.191,128.025  c3.073,11.848,4.665,43.771,6.772,55.479c9.531,52.37,67.342,80.279,105.397,80.279c0.337,0,0.694-0.047,1.01-0.047V142.328  C259.898,142.328,259.586,142.306,259.227,142.306" fill="#E1BE9B"/><path d="M355.004,180.474c-19.422-25.15-51.331-37.909-94.746-38.146v301.826  c43.438-0.48,95.396-31.045,104.342-80.232c2.108-11.729,3.68-43.631,6.773-55.479C381.397,269.824,382.383,215.927,355.004,180.474  " fill="#F1D1AD"/><polygon fill="#E90E8B" points="260.012,444.188 246.174,444.188 253.081,432.228 260.012,420.262 266.918,432.228 273.825,444.188   "/><path d="M260.505,286.094c-14.689,0-12.873,15.339-12.873,21.865h1.817c0-12.704,3.587-17.438,11.056-17.438  c7.288,0,11.079,4.399,11.079,17.438h1.748C273.332,300.334,274.677,286.094,260.505,286.094" fill="#777777"/><path d="M214.959,269.982c0,0,51.779,7.926,91.112,0" fill="none" stroke="#777777" stroke-miterlimit="10" stroke-width="0.25"/><path d="M187.378,266.024c-32.606,0-51.779,12.209-51.779,42.664c0,30.438,20.159,55.838,47.944,55.838  c27.784,0,67.386-36.665,67.386-67.119C250.929,266.955,215.184,266.024,187.378,266.024 M183.543,362.764  c-25.878,0-46.151-23.77-46.151-54.075c0-27.517,16.348-40.904,49.986-40.904c31.259,0,61.779,2.299,61.779,29.623  C249.157,327.703,209.442,362.764,183.543,362.764" fill="#777777"/><path d="M333.653,266.024c-27.783,0-63.528,0.931-63.528,31.383c0,30.454,39.558,67.119,67.363,67.119  s47.944-25.399,47.944-55.838C385.433,278.233,366.26,266.024,333.653,266.024 M337.488,362.764  c-25.899,0-65.614-35.061-65.614-65.356c0-27.324,30.521-29.623,61.779-29.623c33.639,0,50.008,13.388,50.008,40.904  C383.661,338.994,363.368,362.764,337.488,362.764" fill="#777777"/><g opacity="0.8"><g><defs><rect height="94.969" id="SVGID_3_" width="111.765" x="137.37" y="267.784"/></defs><clipPath id="SVGID_4_"><use overflow="visible" xlink:href="#SVGID_3_"/></clipPath><path clip-path="url(#SVGID_4_)" d="M183.521,362.764c-25.879,0-46.151-23.77-46.151-54.075    c0-27.517,16.348-40.904,50.008-40.904c31.237,0,61.757,2.299,61.757,29.623C249.135,327.703,209.42,362.764,183.521,362.764" fill="#1B1C1D"/></g></g><g opacity="0.8"><g><defs><rect height="94.969" id="SVGID_5_" width="111.766" x="271.852" y="267.784"/></defs><clipPath id="SVGID_6_"><use overflow="visible" xlink:href="#SVGID_5_"/></clipPath><path clip-path="url(#SVGID_6_)" d="M337.444,362.764c-25.88,0-65.593-35.061-65.593-65.356    c0-27.324,30.521-29.623,61.758-29.623c33.636,0,50.008,13.388,50.008,40.904C383.617,338.994,363.321,362.764,337.444,362.764" fill="#1B1C1D"/></g></g><g opacity="0.2"><g><defs><rect height="56.681" id="SVGID_7_" width="105.689" x="138.244" y="306.354"/></defs><clipPath id="SVGID_8_"><use overflow="visible" xlink:href="#SVGID_7_"/></clipPath><path clip-path="url(#SVGID_8_)" d="M243.933,317.319c-13.365-6.793-30.835-10.941-50.03-10.941    c-22.021,0-41.822,5.458-55.659,14.139c4.396,24.576,22.626,42.508,45.097,42.508    C203.703,363.024,232.541,341.324,243.933,317.319" fill="#EBECEB"/></g></g><g opacity="0.2"><g><defs><rect height="56.681" id="SVGID_9_" width="105.711" x="277.076" y="306.354"/></defs><clipPath id="SVGID_10_"><use overflow="visible" xlink:href="#SVGID_9_"/></clipPath><path clip-path="url(#SVGID_10_)" d="M277.076,317.319c13.365-6.793,30.833-10.941,50.03-10.941    c22.021,0,41.823,5.458,55.681,14.139c-4.395,24.576-22.626,42.508-45.119,42.508    C317.283,363.024,288.468,341.324,277.076,317.319" fill="#EBECEB"/></g></g><rect fill="#E90E8B" height="162.222" width="41.666" x="235.411" y="13.622"/><path d="M277.076,175.831c0,0,12.961-50.153,38.077-47.786V62.238c0,0-14.574,3.027-38.077-48.616V175.831z" fill="#E90E8B"/></svg>