<?xml version="1.0" encoding="UTF-8" standalone="no"?>
<svg
   xmlns:dc="http://purl.org/dc/elements/1.1/"
   xmlns:cc="http://creativecommons.org/ns#"
   xmlns:rdf="http://www.w3.org/1999/02/22-rdf-syntax-ns#"
   xmlns:svg="http://www.w3.org/2000/svg"
   xmlns="http://www.w3.org/2000/svg"
   xmlns:sodipodi="http://sodipodi.sourceforge.net/DTD/sodipodi-0.dtd"
   xmlns:inkscape="http://www.inkscape.org/namespaces/inkscape"
   id="Слой_1"
   style="enable-background:new 0 0 64 64;"
   version="1.1"
   viewBox="0 0 64 64"
   xml:space="preserve"
   sodipodi:docname="if_9_921316.svg"
   inkscape:version="0.92.3 (2405546, 2018-03-11)"><metadata
     id="metadata17"><rdf:RDF><cc:Work
         rdf:about=""><dc:format>image/svg+xml</dc:format><dc:type
           rdf:resource="http://purl.org/dc/dcmitype/StillImage" /><dc:title></dc:title></cc:Work></rdf:RDF></metadata><defs
     id="defs15" /><sodipodi:namedview
     pagecolor="#ffffff"
     bordercolor="#666666"
     borderopacity="1"
     objecttolerance="10"
     gridtolerance="10"
     guidetolerance="10"
     inkscape:pageopacity="0"
     inkscape:pageshadow="2"
     inkscape:window-width="3840"
     inkscape:window-height="2065"
     id="namedview13"
     showgrid="false"
     inkscape:zoom="20.85965"
     inkscape:cx="19.664328"
     inkscape:cy="27.882041"
     inkscape:window-x="0"
     inkscape:window-y="28"
     inkscape:window-maximized="1"
     inkscape:current-layer="Слой_1" /><style
     type="text/css"
     id="style2">
	.st0{fill:#D65988;}
</style><path
     style="fill:#93358b;opacity:1;stroke:none;stroke-opacity:1;fill-opacity:1"
     inkscape:connector-curvature="0"
     id="path4"
     d="M 44.2,37.6 C 44.6,34.5 43.8,32.2 43,30.8 42.8,24.2 41.1,20.6 39.9,18.7 39.7,16.4 38.9,13.9 38.4,12.3 38.9,11 39.3,9.2 38.9,7.3 38,2.9 32.6,0 28,0 v 0 c -2.4,0 -4.4,0.8 -5.8,2.2 -2.4,2.4 -2.2,5.1 -2.1,6.9 0.1,1.5 0.2,3 -0.8,5.5 -1,2.7 -0.4,5.1 1.7,6.4 0.1,1.5 0.2,2.9 0.4,4.3 0.3,1.9 0.5,3.9 0.5,6.6 0,4.1 0.7,7.8 1,9.3 0,0.8 -0.1,2.4 0,5.1 -0.4,1.2 -1,3.3 -1,5.6 0,1.3 0.4,2.9 2,4.3 v 1.7 1.9 l 1.4,1.2 c 2.2,1.9 4.9,2.9 7.6,2.9 2.8,0 5.4,-1 7.6,-2.9 l 1.4,-1.2 V 58 55.4 c 0.6,-1 1,-2.2 1,-3.4 0,-1.1 0.3,-1.8 0.4,-1.8 0.2,-0.4 0.4,-0.8 0.5,-1.2 1.9,-5.4 1.1,-9.4 0.4,-11.4 z m -4.1,10.1 c -0.1,0.2 -0.2,0.4 -0.3,0.6 -0.3,0.5 -0.8,1.8 -0.8,3.7 0,0.7 -0.5,1.6 -1,2 v 4 c -1.5,1.3 -3.2,1.9 -5,1.9 -1.8,0 -3.5,-0.6 -5,-1.9 v -1.8 c 0.9,0.4 1.9,0.8 2.7,1.1 0.1,0 0.2,0.1 0.3,0.1 0.4,0 0.8,-0.3 0.9,-0.7 0.2,-0.5 -0.1,-1.1 -0.6,-1.3 C 30.4,55.1 29.2,54.6 28,54 v 0 c 0,0 -0.1,0 -0.1,-0.1 C 27.4,53.6 27,53.4 26.5,53.1 26.2,52.8 26,52.4 26,52 c 0,-2.7 1,-5 1,-5 -0.2,-4.3 0,-6 0,-6 0,0 -0.1,-0.3 -0.2,-0.9 0.9,1 1.6,2.6 2.4,4.8 1.2,3.4 2.6,7.2 6.8,7.2 0.6,0 1,-0.4 1,-1 0,-0.6 -0.4,-1 -1,-1 -2.6,0 -3.6,-2.2 -4.9,-5.9 C 30.1,41.5 29,38.5 26.4,37.4 26.2,35.9 26,34 26,32.1 c 0,-5.3 -0.9,-8.2 -1,-11.7 0.1,0 0.2,0 0.4,0 1.1,0 2.2,-0.3 3.2,-0.8 1.8,-1 3.1,-2.9 3.6,-5.2 0.3,-1.1 0.3,-2.2 0.2,-3.3 -0.1,-0.5 -0.5,-0.9 -1.1,-0.9 -0.5,0.1 -1,0.5 -0.9,1.1 0.1,0.9 0,1.8 -0.2,2.7 -0.4,1.8 -1.4,3.2 -2.7,4 -1,0.6 -2.2,0.7 -3.4,0.4 C 23.3,17.9 22.3,18 23,16.3 25.5,9.9 22.6,7.6 25,5.3 25.8,4.3 26.9,4 28,4 c 3,0 6.6,2 7,4.1 0.4,1.8 -0.9,4 -0.9,4 0,0 1.9,5 1.9,8 0,0 2.9,2.7 3,11.8 0,0 1.7,2 1.1,5.7 -2,-0.7 -3.7,-2 -5.1,-4.1 -0.3,-0.5 -0.9,-0.6 -1.4,-0.3 -0.5,0.3 -0.6,0.9 -0.3,1.4 1.9,2.8 4.4,4.6 7.3,5.2 0.5,1.6 0.7,4.3 -0.5,7.9 z"
     class="st0" /><path
     style="fill:#93358b;fill-opacity:1"
     inkscape:connector-curvature="0"
     id="path6"
     d="M 30.1,5.4 C 29.7,5 29.1,4.9 28.7,5.3 c -0.4,0.4 -0.5,1 -0.1,1.4 0.5,0.5 0.8,1.1 1.1,1.8 0.2,0.4 0.5,0.6 0.9,0.6 0.1,0 0.3,0 0.4,-0.1 C 31.5,8.8 31.7,8.2 31.5,7.7 31.2,6.9 30.7,6.1 30.1,5.4 Z"
     class="st0" /><path
     style="fill:#93358b;fill-opacity:1"
     inkscape:connector-curvature="0"
     id="path8"
     d="M 33.6,30.7 C 33.2,29.6 33,28.9 33,28.9 32.9,28.4 32.4,28 31.8,28.1 c -0.5,0.1 -0.9,0.6 -0.8,1.2 0,0 0.2,0.9 0.7,2.2 0.2,0.4 0.5,0.6 0.9,0.6 0.1,0 0.2,0 0.4,-0.1 0.5,-0.2 0.8,-0.8 0.6,-1.3 z"
     class="st0" /></svg>