<?xml version="1.0" encoding="UTF-8" standalone="no"?>
<svg
   xmlns:dc="http://purl.org/dc/elements/1.1/"
   xmlns:cc="http://creativecommons.org/ns#"
   xmlns:rdf="http://www.w3.org/1999/02/22-rdf-syntax-ns#"
   xmlns:svg="http://www.w3.org/2000/svg"
   xmlns="http://www.w3.org/2000/svg"
   xmlns:sodipodi="http://sodipodi.sourceforge.net/DTD/sodipodi-0.dtd"
   xmlns:inkscape="http://www.inkscape.org/namespaces/inkscape"
   enable-background="new 0 0 512 512"
   height="512px"
   id="Layer_1"
   version="1.1"
   viewBox="0 0 512 512"
   width="512px"
   xml:space="preserve"
   sodipodi:docname="if_Casual_Work_Guy_Face_579353.svg"
   inkscape:version="0.92.3 (2405546, 2018-03-11)"><metadata
     id="metadata59"><rdf:RDF><cc:Work
         rdf:about=""><dc:format>image/svg+xml</dc:format><dc:type
           rdf:resource="http://purl.org/dc/dcmitype/StillImage" /><dc:title></dc:title></cc:Work></rdf:RDF></metadata><defs
     id="defs57" /><sodipodi:namedview
     pagecolor="#ffffff"
     bordercolor="#666666"
     borderopacity="1"
     objecttolerance="10"
     gridtolerance="10"
     guidetolerance="10"
     inkscape:pageopacity="0"
     inkscape:pageshadow="2"
     inkscape:window-width="1918"
     inkscape:window-height="2064"
     id="namedview55"
     showgrid="false"
     inkscape:zoom="1.84375"
     inkscape:cx="254.06458"
     inkscape:cy="150.46375"
     inkscape:window-x="0"
     inkscape:window-y="28"
     inkscape:window-maximized="0"
     inkscape:current-layer="Layer_1" /><path
     d="M272.119,30.619c0,5.718-4.627,10.344-10.346,10.344c-5.716,0-10.363-4.626-10.363-10.344  c0-5.707,4.647-10.343,10.363-10.343C267.492,20.276,272.119,24.912,272.119,30.619"
     fill="#799BAA"
     id="path40" /><path
     d="M387.811,191.836h-125.31h-1.454H135.738c-29.495,0-31.999,54.018-31.999,54.018  c0,29.476,2.504,52.767,31.999,52.767c0,0,46.948-49.796,125.309-48.635h0.082c0.222,0,0.443,0,0.645,0c0.202,0,0.405,0,0.627,0  h0.101c78.341-1.162,125.31,48.635,125.31,48.635c29.474,0,31.998-23.291,31.998-52.767  C419.809,245.854,417.284,191.836,387.811,191.836"
     fill="#57747E"
     id="path42" /><path
     d="M387.204,188.259h-125.31h-1.454H135.112c-29.474,0-31.979,54.02-31.979,54.02  c0,29.473,2.505,52.747,31.979,52.747c0,0,46.987-49.777,125.328-48.616h0.103c0.201,0,0.402,0,0.606,0c0.241,0,0.423,0,0.645,0  h0.061h0.04c78.343-1.162,125.31,48.616,125.31,48.616c29.473,0,32-23.273,32-52.747  C419.204,242.279,416.677,188.259,387.204,188.259"
     fill="#E8E51C"
     id="path44" /><path
     d="M261.995,30.7c-0.281,0-0.544,0.021-0.846,0.021c-0.264,0-0.546-0.021-0.851-0.021  c-115.895,0-154.883,78.977-154.883,194.883c0,0,51.372-26.889,155.45-27.97h0.606c104.077,1.081,155.449,27.97,155.449,27.97  C416.921,109.677,377.934,30.7,261.995,30.7"
     fill="#C42327"
     id="path46" /><line
     fill="none"
     stroke="#1B2F34"
     stroke-miterlimit="10"
     stroke-width="0.5"
     x1="260.319"
     x2="260.319"
     y1="30.7"
     y2="197.553"
     id="line48" /><path
     d="M395.123,216.36c0,0-0.182-3.393-0.546-9.303c-0.182-2.979-0.282-6.575-0.665-10.696  c-0.425-4.101-0.891-8.727-1.415-13.777c-0.505-5.03-1.515-10.444-2.323-16.202c-0.868-5.728-2.403-11.686-3.516-17.908  c-1.596-6.101-3.009-12.495-5.069-18.788c-2.02-6.333-4.182-12.696-6.89-18.868c-2.303-6.323-5.535-12.241-8.463-18.161  c-1.658-2.848-3.335-5.686-4.951-8.474c-1.676-2.798-3.655-5.303-5.432-7.909c-1.719-2.646-3.718-4.98-5.679-7.303  c-1.958-2.293-3.675-4.737-5.837-6.655c-2.042-2.051-4.04-4.01-5.961-5.94c-2.1-1.696-4.161-3.353-6.099-4.918  c-1.9-1.676-3.982-2.94-5.9-4.181c-1.918-1.243-3.735-2.485-5.475-3.536c-3.697-1.797-6.849-3.534-9.575-4.677  c-5.615-1.989-8.787-3.1-8.787-3.1s3.252,0.929,8.988,2.545c2.81,0.97,6.082,2.496,9.96,4.091c3.555,2.111,7.919,4.081,11.939,7.262  c2.081,1.556,4.201,3.141,6.424,4.818c2.041,1.889,4.16,3.828,6.303,5.818c2.283,1.919,4.12,4.343,6.202,6.616  c2.121,2.272,4.161,4.697,5.958,7.362c1.819,2.626,3.901,5.193,5.618,8.01c1.717,2.829,3.433,5.708,5.17,8.606  c3.051,5.98,6.424,12,8.83,18.384c2.686,6.313,4.808,12.828,6.786,19.262c1.999,6.414,3.394,12.888,4.929,19.09  c1.112,6.292,2.384,12.354,3.051,18.191c0.606,5.808,1.435,11.293,1.736,16.384c0.728,10.212,0.891,18.696,0.748,24.635  C395.144,212.967,395.123,216.36,395.123,216.36"
     fill="#1B2F34"
     id="path50" /><path
     d="M126.789,214.34c0,0-0.02-3.415-0.061-9.394c-0.141-5.979,0.041-14.504,0.768-24.757  c0.364-5.131,1.173-10.635,1.798-16.495c0.707-5.847,1.96-11.949,3.131-18.282c1.596-6.232,2.929-12.767,5.051-19.201  c1.03-3.202,2.081-6.455,3.131-9.717c1.15-3.233,2.524-6.375,3.777-9.586c1.232-3.222,2.707-6.323,4.343-9.362  c1.616-3.021,2.95-6.172,4.768-9.041c1.777-2.899,3.535-5.777,5.293-8.606c1.857-2.777,3.919-5.313,5.817-7.949  c1.839-2.646,4.04-4.979,6.162-7.252c2.162-2.263,4.141-4.596,6.484-6.434c2.223-1.95,4.425-3.828,6.526-5.657  c2.303-1.566,4.524-3.122,6.646-4.565c4.262-2.92,8.687-4.819,12.445-6.647c3.959-1.343,7.333-2.747,10.221-3.494  c5.859-1.233,9.211-1.939,9.211-1.939s-3.292,0.909-9.029,2.525c-2.829,0.91-6.082,2.526-9.9,4.071  c-1.857,0.868-3.696,2.11-5.696,3.252c-2,1.202-4.181,2.233-6.162,3.869c-2.019,1.505-4.121,3.081-6.323,4.697  c-1.999,1.858-4.08,3.757-6.201,5.747c-2.223,1.858-4.062,4.221-6.06,6.494c-1.981,2.313-4.162,4.556-5.9,7.202  c-1.838,2.586-3.817,5.112-5.596,7.818c-1.676,2.789-3.373,5.627-5.09,8.485c-1.738,2.828-3.031,5.929-4.586,8.928  c-1.576,2.98-2.95,6.041-4.161,9.233c-1.253,3.121-2.668,6.202-3.818,9.374c-1.071,3.202-2.122,6.383-3.212,9.535  c-2.122,6.303-3.536,12.757-5.192,18.878c-1.151,6.252-2.686,12.232-3.576,18c-0.828,5.797-1.818,11.231-2.342,16.301  c-0.526,5.071-1.012,9.728-1.435,13.839c-0.405,4.141-0.485,7.777-0.687,10.757C126.991,210.926,126.789,214.34,126.789,214.34"
     fill="#1B2F34"
     id="path52" /></svg>